<svg width="160" height="170" viewBox="0 0 160 170" fill="none" xmlns="http://www.w3.org/2000/svg">
<g clip-path="url(#clip0_50_111)">
<path d="M160 31.8743H147.706V154.059C147.721 156.196 147.229 158.313 146.259 160.279C144.402 164.102 140.883 167.145 136.456 168.753C134.174 169.59 131.717 170.014 129.237 170.001H30.8027C28.3229 170.016 25.8659 169.591 23.5842 168.753C19.1575 167.145 15.6379 164.102 13.7809 160.279C12.8155 158.312 12.3278 156.195 12.3479 154.059V31.8743H0V21.25H49.2308V10.6257C49.2071 9.1989 49.5358 7.78407 50.195 6.47545C50.8293 5.216 51.7387 4.07381 52.8735 3.11129C53.9946 2.13796 55.3163 1.35381 56.7707 0.799152C58.3016 0.249012 59.9475 -0.0225458 61.6054 0.00146392H98.4615C100.114 -0.0107198 101.751 0.272693 103.269 0.833834C104.714 1.37559 106.028 2.14831 107.14 3.11129C108.27 4.07745 109.178 5.21876 109.818 6.47545C110.461 7.78807 110.785 9.2007 110.769 10.6257V21.25H160.013L160 31.8743ZM135.385 31.8743H24.6154V154.059C24.6362 155.464 25.2919 156.806 26.4428 157.8C27.5936 158.793 29.1485 159.359 30.7759 159.377H129.237C130.865 159.359 132.42 158.793 133.571 157.8C134.721 156.806 135.377 155.464 135.398 154.059L135.385 31.8743ZM61.6054 138.129H49.2308V53.1807H61.6054V138.129ZM61.6054 21.25H98.4615V10.6257H61.6054V21.25ZM86.2208 138.129H73.8462V53.1807H86.1405L86.2208 138.129ZM110.836 138.129H98.4615V53.1807H110.756L110.836 138.129Z" fill="#87B781"/>
</g>
<defs>
<clipPath id="clip0_50_111">
<rect width="160" height="170" fill="white"/>
</clipPath>
</defs>
</svg>
