<svg width="160" height="160" viewBox="0 0 160 160" fill="none" xmlns="http://www.w3.org/2000/svg">
<g clip-path="url(#clip0_50_138)">
<path d="M131.427 80.0002C128.271 80.0002 125.712 82.5585 125.712 85.7145V142.856C125.712 146.012 123.154 148.571 119.998 148.571H17.1426C13.9866 148.571 11.4283 146.012 11.4283 142.856V28.5723C11.4283 25.4163 13.9866 22.858 17.1426 22.858H85.7132C88.8691 22.858 91.4275 20.2997 91.4275 17.1437C91.4275 13.9877 88.8691 11.4297 85.7132 11.4297H17.1426C7.67501 11.4297 0 19.1047 0 28.5723V142.856C0 152.324 7.67501 159.999 17.1426 159.999H119.998C129.466 159.999 137.141 152.324 137.141 142.856V85.7142C137.141 82.5585 134.583 80.0002 131.427 80.0002Z" fill="#87B781"/>
<path d="M153.595 6.40928C149.492 2.30577 143.927 0.000885614 138.124 0.00155525C132.318 -0.0151856 126.747 2.29371 122.656 6.41297L47.388 81.6745C46.7636 82.3036 46.2925 83.0683 46.0109 83.9087L34.5826 118.194C33.5852 121.188 35.2041 124.424 38.1983 125.421C38.7792 125.615 39.3876 125.713 39.9996 125.714C40.613 125.713 41.2227 125.615 41.8053 125.423L76.0906 113.994C76.9326 113.713 77.6977 113.24 78.3248 112.612L153.592 37.344C162.135 28.8022 162.136 14.9521 153.595 6.40928ZM145.513 29.2696L71.2277 103.554L49.0337 110.966L56.4221 88.8001L130.735 14.5155C134.821 10.4381 141.438 10.4448 145.516 14.5303C147.464 16.4819 148.561 19.124 148.569 21.8812C148.576 24.6531 147.476 27.3129 145.513 29.2696Z" fill="#87B781"/>
</g>
<defs>
<clipPath id="clip0_50_138">
<rect width="160" height="160" fill="white"/>
</clipPath>
</defs>
</svg>
