<svg width="190" height="191" viewBox="0 0 190 191" fill="none" xmlns="http://www.w3.org/2000/svg">
<path d="M95 0C42.636 0 0 42.8325 0 95.4378C0 148.043 42.636 190.876 95 190.876C147.364 190.876 190 148.043 190 95.4378C190 42.8325 147.364 0 95 0ZM95 182.592C47.158 182.592 8.246 143.5 8.246 95.4378C8.246 47.3753 47.158 8.284 95 8.284C142.842 8.284 181.754 47.3753 181.754 95.4378C181.754 143.5 142.842 182.592 95 182.592Z" fill="white"/>
<path d="M158.156 86.6575L112.366 40.6565C105.298 33.5559 92.948 33.5559 85.88 40.6565C78.584 47.9861 78.584 59.9349 85.88 67.2645L93.29 74.7087H45.448C34.048 74.7087 24.814 83.9852 24.814 95.4759C24.814 106.967 34.048 116.205 45.486 116.205H93.328L85.88 123.611C82.346 127.161 80.37 131.933 80.37 136.934C80.37 147.318 88.768 155.754 99.104 155.754C104.082 155.754 108.832 153.808 112.366 150.257L158.156 104.256C162.982 99.408 162.982 91.5057 158.156 86.6575ZM152.342 98.3773L106.552 144.378C102.6 148.348 95.684 148.348 91.732 144.378C87.628 140.255 87.666 133.613 91.732 129.49L106.172 114.983C106.932 114.22 107.388 113.151 107.388 112.044C107.388 109.753 105.526 107.883 103.246 107.921H45.448C38.608 107.921 33.06 102.347 33.06 95.4759C33.06 88.6044 38.608 83.0309 45.448 83.0309H103.284C104.386 83.0309 105.45 82.6109 106.21 81.8093C107.806 80.2059 107.806 77.5718 106.21 75.9303L91.77 61.4237C87.666 57.3008 87.704 50.6584 91.77 46.5355C95.722 42.5652 102.638 42.5652 106.59 46.5355L152.38 92.5365C153.976 94.1398 153.976 96.7357 152.342 98.3773Z" fill="white"/>
</svg>
