<svg width="190" height="190" viewBox="0 0 190 190" fill="none" xmlns="http://www.w3.org/2000/svg">
<path d="M95 2.22656C43.8633 2.22656 2.22656 43.8633 2.22656 95C2.22656 146.137 43.8633 187.773 95 187.773C146.137 187.773 187.773 146.137 187.773 95C187.773 43.8633 146.137 2.22656 95 2.22656ZM95 179.721C48.2793 179.721 10.2793 141.721 10.2793 95C10.2793 48.2793 48.2793 10.2793 95 10.2793C141.721 10.2793 179.721 48.2793 179.721 95C179.721 141.721 141.721 179.721 95 179.721Z" fill="white"/>
<path d="M143.391 74.8496H96.6699L103.906 67.6133C111.031 60.4883 111.031 48.873 103.906 41.748C97.0039 34.8457 84.9434 34.8457 78.041 41.748L33.3242 86.4648C28.6113 91.1777 28.6113 98.8594 33.3242 103.572L78.041 148.289C81.4551 151.74 86.1309 153.67 90.9922 153.633C95.8535 153.633 100.492 151.703 103.943 148.289C111.105 141.127 111.105 129.549 103.943 122.424L96.707 115.187H143.428C154.561 115.187 163.578 106.17 163.578 95.0371C163.578 83.8672 154.523 74.8496 143.391 74.8496ZM143.391 107.098H86.9473C85.8711 107.098 84.832 107.506 84.0898 108.285C82.5312 109.844 82.5312 112.404 84.0898 114L98.1914 128.102C102.199 132.109 102.162 138.566 98.1914 142.574C94.332 146.434 87.5781 146.434 83.7187 142.574L39.002 97.8574C37.4434 96.2988 37.4434 93.7383 39.002 92.1426L83.7187 47.4258C85.6484 45.4961 88.2461 44.4199 90.9551 44.4199V44.457C93.6641 44.457 96.2246 45.5332 98.1543 47.4258C102.162 51.3965 102.162 57.8906 98.1914 61.8984L84.0898 76.0371C83.3477 76.7793 82.9023 77.8184 82.9023 78.8945C82.9023 81.1211 84.7207 82.9394 86.9473 82.9023H143.428C150.107 82.9023 155.525 88.3203 155.525 95C155.525 101.68 150.07 107.098 143.391 107.098Z" fill="white"/>
</svg>
